<svg width="238" height="124" viewBox="0 0 238 124" fill="none" xmlns="http://www.w3.org/2000/svg">
<path d="M8.90263 42.841V14.539L5.56363 14.804L0.263627 12.154V3.25L26.6576 0.917998L31.9576 3.568V12.472L23.3186 13.214V44.59L14.2026 45.438L8.90263 42.841ZM26.1276 9.345V1.501L0.793627 3.727V11.571L9.43263 10.829V42.258L17.4886 41.569V10.087L26.1276 9.345ZM61.2604 42.47L57.4974 35.686V45.332L48.3814 46.127L43.0814 43.477V3.197L56.3844 2.031C56.6671 1.99566 56.9321 1.978 57.1794 1.978C57.4621 1.978 57.7271 1.978 57.9744 1.978C60.0237 1.978 62.0024 2.296 63.9104 2.932C65.8184 3.568 67.5321 4.50433 69.0514 5.741C70.5707 6.97767 71.7721 8.47933 72.6554 10.246C73.5387 11.9773 73.9804 13.956 73.9804 16.182C73.9804 21.8 71.9311 25.8457 67.8324 28.319L76.7894 44.272L66.5604 45.12L61.2604 42.47ZM61.7904 25.457C63.9811 24.2557 65.5887 22.6657 66.6134 20.687C67.6381 18.7083 68.1504 16.3233 68.1504 13.532C68.1504 10.246 67.2317 7.596 65.3944 5.582C63.5924 3.53266 61.0484 2.508 57.7624 2.508C57.5504 2.508 57.3384 2.508 57.1264 2.508C56.9144 2.508 56.6847 2.52566 56.4374 2.561L43.6114 3.674V42.947L51.6674 42.258V28.266L53.9464 28.054L61.5254 41.94L70.5884 41.145L61.7904 25.457ZM51.6674 10.617L55.1654 10.299H55.7484C56.9144 10.299 57.8861 10.6523 58.6634 11.359C59.4761 12.0303 59.8824 13.214 59.8824 14.91C59.8824 16.6767 59.4584 18.0547 58.6104 19.044C57.7624 19.998 56.6141 20.5457 55.1654 20.687L51.6674 21.005V10.617ZM57.4974 19.362C58.7341 18.4787 59.3524 16.9947 59.3524 14.91C59.3524 14.6627 59.3347 14.433 59.2994 14.221C59.2994 14.009 59.2817 13.797 59.2464 13.585L57.4974 13.744V19.362ZM92.9722 42.894V28.743L82.2662 3.462L92.3362 2.561L97.6362 5.211L99.8622 11.041L102.83 2.137L112.423 1.289L117.723 3.939L107.388 30.651V44.643L98.2722 45.491L92.9722 42.894ZM111.628 1.925L103.148 2.667L97.8482 18.461L91.9652 3.144L83.0612 3.939L93.5022 28.637V42.311L101.558 41.569V27.948L111.628 1.925ZM180.031 43.477L179.448 45.279L170.385 46.074L165.88 43.848V45.915L157.506 46.657L152.206 44.007V3.727L162.594 2.773L167.894 5.423L172.134 21.217L177.01 2.561L187.345 1.713L192.645 4.363V44.696L183.847 45.385L180.031 43.477ZM177.434 3.091L170.703 29.061C170.597 29.485 170.491 29.9797 170.385 30.545C170.279 31.075 170.19 31.552 170.12 31.976C170.049 32.4 170.014 32.612 170.014 32.612L169.802 32.665C169.802 32.665 169.766 32.453 169.696 32.029C169.66 31.605 169.59 31.1103 169.484 30.545C169.413 29.9797 169.325 29.5027 169.219 29.114L162.17 3.356L152.736 4.204V43.424L160.05 42.841V25.881C160.05 25.139 160.032 24.3617 159.997 23.549C159.961 22.701 159.926 21.9943 159.891 21.429C159.855 20.8637 159.838 20.581 159.838 20.581L159.944 20.528C160.014 21.0227 160.103 21.641 160.209 22.383C160.35 23.0897 160.491 23.7787 160.633 24.45C160.809 25.086 160.933 25.5807 161.004 25.934L165.456 42.894L173.671 42.152L178.017 25.881C178.229 25.0683 178.423 24.2203 178.6 23.337C178.776 22.4183 178.918 21.641 179.024 21.005C179.13 20.369 179.183 20.051 179.183 20.051L179.289 20.104C179.289 20.104 179.271 20.422 179.236 21.058C179.2 21.694 179.165 22.436 179.13 23.284C179.094 24.132 179.077 24.8917 179.077 25.563V42.205L186.815 41.569V2.296L177.434 3.091ZM212.5 42.894V28.743L201.794 3.462L211.864 2.561L217.164 5.211L219.39 11.041L222.358 2.137L231.951 1.289L237.251 3.939L226.916 30.651V44.643L217.8 45.491L212.5 42.894ZM231.156 1.925L222.676 2.667L217.376 18.461L211.493 3.144L202.589 3.939L213.03 28.637V42.311L221.086 41.569V27.948L231.156 1.925ZM59.2198 108.31C57.5198 112.277 54.7715 115.62 50.9748 118.34C47.2348 121.06 42.6165 122.647 37.1198 123.1C36.6098 123.157 36.0998 123.185 35.5898 123.185C35.0798 123.185 34.5698 123.185 34.0598 123.185C29.8098 123.185 25.7581 122.448 21.9048 120.975C18.1081 119.502 14.7365 117.292 11.7898 114.345C8.84314 111.342 6.51981 107.545 4.8198 102.955C3.1198 98.365 2.2698 92.925 2.2698 86.635C2.2698 81.8183 2.8648 77.3133 4.0548 73.12C5.2448 68.87 6.97314 65.1017 9.23981 61.815C11.5631 58.5283 14.3681 55.8933 17.6548 53.91C20.9415 51.9267 24.6531 50.765 28.7898 50.425C29.1298 50.3683 29.4698 50.34 29.8098 50.34C30.1498 50.34 30.4898 50.34 30.8298 50.34C34.9665 50.34 38.9898 51.275 42.8998 53.145C46.8665 55.015 50.3231 57.565 53.2698 60.795C56.2731 64.025 58.3981 67.68 59.6448 71.76L49.5298 77.455L50.7198 77.37L59.2198 81.62V108.31ZM24.6248 80.43V92.5L37.7148 91.395V98.705C36.9781 100.178 35.7881 101.453 34.1448 102.53C32.5581 103.55 30.8865 104.117 29.1298 104.23C28.9031 104.287 28.6481 104.315 28.3648 104.315C28.1381 104.315 27.8831 104.315 27.5998 104.315C23.9165 104.315 21.1398 102.842 19.2698 99.895C17.3998 96.9483 16.4648 92.16 16.4648 85.53C16.4648 79.5233 17.4281 74.735 19.3548 71.165C21.2815 67.595 24.3698 65.64 28.6198 65.3H29.5548C31.8781 65.3 33.8615 65.98 35.5048 67.34C37.2048 68.7 38.4231 70.6833 39.1598 73.29L50.1248 67.085C49.1615 64.365 47.8298 61.815 46.1298 59.435C44.4865 56.9983 42.4181 55.015 39.9248 53.485C37.4315 51.955 34.3998 51.19 30.8298 51.19C30.5465 51.19 30.2348 51.19 29.8948 51.19C29.5548 51.19 29.2148 51.2183 28.8748 51.275C23.4915 51.7283 18.8731 53.5983 15.0198 56.885C11.1665 60.115 8.21981 64.3367 6.1798 69.55C4.1398 74.7067 3.1198 80.4017 3.1198 86.635C3.1198 93.095 4.0548 98.6767 5.9248 103.38C7.7948 108.083 10.4581 111.71 13.9148 114.26C17.3715 116.81 21.4798 118.085 26.2398 118.085C26.6365 118.085 27.0048 118.085 27.3448 118.085C27.7415 118.085 28.1381 118.057 28.5348 118C33.8615 117.547 38.3381 116.045 41.9648 113.495C45.6481 110.888 48.3115 107.687 49.9548 103.89V78.305L24.6248 80.43ZM38.6498 74.565C38.4231 73.7717 38.1681 73.035 37.8848 72.355C37.6015 71.6183 37.2898 70.9667 36.9498 70.4C34.3998 70.6267 32.3031 71.5333 30.6598 73.12C29.0731 74.65 27.8831 76.7467 27.0898 79.41L45.4498 77.88L38.6498 74.565ZM32.6998 97.855L26.0698 94.455C26.1831 96.7217 26.4098 98.5067 26.7498 99.81C27.1465 101.057 27.7131 102.275 28.4498 103.465C28.6198 103.408 28.8181 103.38 29.0448 103.38C30.5181 103.267 31.9915 102.813 33.4648 102.02C34.9381 101.17 36.0715 100.178 36.8648 99.045V97.345L32.6998 97.855ZM110.9 51.7L119.4 55.95V99.045C119.4 106.355 117.501 112.078 113.705 116.215C109.965 120.352 104.865 122.732 98.4048 123.355C98.0081 123.412 97.5831 123.44 97.1298 123.44C96.7331 123.44 96.3081 123.44 95.8548 123.44C93.1348 123.44 90.5848 123.043 88.2048 122.25C85.8815 121.457 83.4731 120.437 80.9798 119.19C78.2598 117.773 75.9931 116.215 74.1798 114.515C72.3665 112.815 71.0065 110.69 70.0998 108.14C69.1931 105.533 68.7398 102.275 68.7398 98.365V54.59L83.6148 53.23L92.1148 57.48V98.705C92.1148 99.6117 92.1431 100.462 92.1998 101.255C92.3131 101.992 92.4265 102.672 92.5398 103.295C93.8431 102.615 94.8348 101.453 95.5148 99.81C96.1948 98.1667 96.5348 95.9567 96.5348 93.18V52.975L110.9 51.7ZM97.3848 53.74V93.18C97.3848 97.1467 96.7331 100.037 95.4298 101.85C94.1265 103.607 92.3131 104.598 89.9898 104.825H89.1398C87.0431 104.825 85.4565 104.003 84.3798 102.36C83.3031 100.717 82.7648 98.0817 82.7648 94.455V54.165L69.5898 55.355V98.365C69.5898 104.882 71.1198 109.84 74.1798 113.24C77.2398 116.64 81.6031 118.34 87.2698 118.34C87.7231 118.34 88.1481 118.34 88.5448 118.34C88.9981 118.34 89.4231 118.312 89.8198 118.255C96.0531 117.745 100.983 115.478 104.61 111.455C108.236 107.375 110.05 101.822 110.05 94.795V52.635L97.3848 53.74ZM140.194 117.83V95.135L123.024 54.59L139.174 53.145L147.674 57.395L151.244 66.745L156.004 52.465L171.389 51.105L179.889 55.355L163.314 98.195V120.635L148.694 121.995L140.194 117.83ZM170.114 52.125L156.514 53.315L148.014 78.645L138.579 54.08L124.299 55.355L141.044 94.965V116.895L153.964 115.705V93.86L170.114 52.125ZM212.129 73.12C211.959 72.44 211.789 71.8167 211.619 71.25C211.449 70.6833 211.279 70.145 211.109 69.635C209.862 69.975 208.842 70.57 208.049 71.42C207.255 72.27 206.859 73.2333 206.859 74.31C206.859 75.2733 206.972 76.0667 207.199 76.69L209.579 77.37C212.469 78.22 215.387 79.2967 218.334 80.6C221.28 81.8467 223.972 83.3767 226.409 85.19C228.902 86.9467 230.914 89.0433 232.444 91.48C233.974 93.86 234.739 96.58 234.739 99.64C234.739 106.61 232.784 112.135 228.874 116.215C225.02 120.295 219.552 122.647 212.469 123.27C212.015 123.327 211.534 123.355 211.024 123.355C210.57 123.412 210.117 123.44 209.664 123.44C207.51 123.44 205.3 123.128 203.034 122.505C200.767 121.938 198.444 121.032 196.064 119.785C193.287 118.255 190.964 116.753 189.094 115.28C187.224 113.75 185.694 111.88 184.504 109.67C183.37 107.46 182.407 104.598 181.614 101.085L195.809 95.645L204.309 99.895C204.649 101.368 205.045 102.643 205.499 103.72C208.955 103.21 210.684 101.482 210.684 98.535C210.684 98.0817 210.627 97.685 210.514 97.345C210.457 96.9483 210.372 96.58 210.259 96.24C210.259 96.24 209.919 96.0417 209.239 95.645C208.559 95.2483 207.935 94.9933 207.369 94.88C201.872 93.52 197.31 91.905 193.684 90.035C190.114 88.165 187.45 85.785 185.694 82.895C183.994 80.005 183.144 76.35 183.144 71.93C183.144 68.19 184.022 64.79 185.779 61.73C187.535 58.6133 189.972 56.0917 193.089 54.165C196.262 52.1817 199.889 51.02 203.969 50.68C204.479 50.6233 204.96 50.595 205.414 50.595C205.924 50.5383 206.405 50.51 206.859 50.51C209.409 50.51 211.647 50.85 213.574 51.53C215.557 52.21 217.824 53.145 220.374 54.335C222.98 55.525 225.162 56.8567 226.919 58.33C228.675 59.8033 230.12 61.645 231.254 63.855C232.444 66.0083 233.435 68.785 234.229 72.185L220.629 77.37L212.129 73.12ZM203.544 104.74C201.277 104.74 199.464 104.06 198.104 102.7C196.744 101.34 195.752 99.385 195.129 96.835L182.549 101.595C183.852 107.205 186.005 111.398 189.009 114.175C192.012 116.895 196.064 118.255 201.164 118.255C201.617 118.255 202.07 118.255 202.524 118.255C202.977 118.255 203.43 118.227 203.884 118.17C210.684 117.603 215.954 115.337 219.694 111.37C223.49 107.403 225.389 102.077 225.389 95.39C225.389 90.63 224.057 86.9467 221.394 84.34C218.73 81.7333 214.707 79.6933 209.324 78.22L202.524 76.35C200.484 75.7833 199.124 74.9617 198.444 73.885C197.82 72.8083 197.509 71.5333 197.509 70.06C197.509 68.5867 198.075 67.3117 199.209 66.235C200.342 65.1583 201.844 64.535 203.714 64.365C203.94 64.365 204.139 64.365 204.309 64.365C204.535 64.3083 204.762 64.28 204.989 64.28C207.085 64.28 208.729 64.875 209.919 66.065C211.165 67.1983 212.1 69.1817 212.724 72.015L224.709 67.425C223.519 62.0417 221.479 58.0467 218.589 55.44C215.755 52.7767 211.845 51.445 206.859 51.445C206.405 51.445 205.924 51.445 205.414 51.445C204.96 51.445 204.507 51.4733 204.054 51.53C200.087 51.87 196.602 52.975 193.599 54.845C190.595 56.715 188.244 59.1233 186.544 62.07C184.844 65.0167 183.994 68.3033 183.994 71.93C183.994 76.9167 185.099 80.8833 187.309 83.83C189.575 86.7767 193.57 88.9867 199.294 90.46L204.564 91.82C206.717 92.3867 208.417 93.1233 209.664 94.03C210.91 94.9367 211.534 96.4383 211.534 98.535C211.534 102.218 209.182 104.287 204.479 104.74H203.544Z" fill="#FF5A01"/>
</svg>
